USFL
nRows=223
nColumns=2
inDegrees=yes
endheader
time	tib_ant_r	
2.69456	 83.235175	
2.72782	 83.208752	
2.76109	 83.197770	
2.79435	 83.204750	
2.82762	 83.197327	
2.86089	 83.178397	
2.89415	 83.172297	
2.92742	 83.167318	
2.96069	 83.161895	
2.99395	 83.152380	
3.02722	 83.200618	
3.06048	 83.197351	
3.09375	 83.183737	
3.12702	 83.203920	
3.16028	 83.205827	
3.19355	 83.209153	
3.22681	 83.222604	
3.26008	 83.198458	
3.29335	 83.193216	
3.32661	 83.179690	
3.35988	 83.178190	
3.39315	 83.181602	
3.42641	 83.187883	
3.45968	 83.179592	
3.49294	 83.177926	
3.52621	 83.185427	
3.55948	 83.168839	
3.59274	 83.181037	
3.62601	 83.179255	
3.65927	 83.210470	
3.69254	 83.180787	
3.72581	 83.169066	
3.75907	 83.171136	
3.79234	 83.171082	
3.8256	 83.164311	
3.85887	 83.178724	
3.89214	 83.169018	
3.9254	 83.167722	
3.95867	 83.167957	
3.99194	 83.167061	
4.0252	 83.161232	
4.05847	 83.169960	
4.09173	 83.166303	
4.125	 83.149651	
4.15827	 83.162787	
4.19153	 83.148509	
4.2248	 83.144997	
4.25806	 83.132791	
4.29133	 83.121339	
4.3246	 83.126369	
4.35786	 83.123831	
4.39113	 83.104634	
4.4244	 83.108739	
4.45766	 83.093738	
4.49093	 83.085713	
4.52419	 83.082509	
4.55746	 83.087168	
4.59073	 83.088884	
4.62399	 83.091204	
4.65726	 83.099113	
4.69052	 83.109624	
4.72379	 83.102785	
4.75706	 83.091940	
4.79032	 83.101597	
4.82359	 83.272326	
4.85685	 83.429360	
4.89012	 83.061984	
4.92339	 82.678196	
4.95665	 82.471714	
4.98992	 81.984563	
5.02319	 58.227619	
5.05645	 58.423886	
5.08972	 58.078603	
5.12298	 57.533192	
5.15625	 57.065753	
5.18952	 56.773491	
5.22278	 56.460308	
5.25605	 56.312737	
5.28931	 56.327791	
5.32258	 56.268488	
5.35585	 56.140834	
5.38911	 56.191762	
5.42238	 56.204054	
5.45565	 56.141916	
5.48891	 56.116939	
5.52218	 56.147801	
5.55544	 56.175436	
5.58871	 56.068944	
5.62198	 56.166929	
5.65524	 56.190471	
5.68851	 56.211078	
5.72177	 56.141142	
5.75504	 56.282460	
5.78831	 56.346107	
5.82157	 56.283358	
5.85484	 56.347160	
5.8881	 56.362824	
5.92137	 56.351453	
5.95464	 56.298410	
5.9879	 56.257076	
6.02117	 56.350479	
6.05444	 56.249491	
6.0877	 56.271831	
6.12097	 56.261366	
6.15423	 56.260106	
6.1875	 56.206805	
6.22077	 56.137248	
6.25403	 56.128473	
6.2873	 56.157951	
6.32056	 56.172542	
6.35383	 56.294556	
6.3871	 56.255410	
6.42036	 56.289351	
6.45363	 56.280444	
6.4869	 56.294143	
6.52016	 56.338978	
6.55343	 56.293967	
6.58669	 56.297097	
6.61996	 56.329220	
6.65323	 56.289882	
6.68649	 56.349117	
6.71976	 56.380455	
6.75302	 56.435086	
6.78629	 56.526043	
6.81956	 56.539811	
6.85282	 56.545518	
6.88609	 56.538018	
6.91935	 56.526325	
6.95262	 56.579340	
6.98589	 56.561558	
7.01915	 56.538252	
7.05242	 56.594970	
7.08569	 56.579534	
7.11895	 56.557811	
7.15222	 56.531747	
7.18548	 56.555443	
7.21875	 56.520078	
7.25202	 56.589894	
7.28528	 56.501701	
7.31855	 56.527474	
7.35181	 56.582849	
7.38508	 56.591766	
7.41835	 56.611530	
7.45161	 56.597409	
7.48488	 56.536871	
7.51815	 56.606343	
7.55141	 56.624220	
7.58468	 56.576624	
7.61794	 56.616428	
7.65121	 56.580766	
7.68448	 56.623946	
7.71774	 56.613099	
7.75101	 56.666352	
7.78427	 56.689393	
7.81754	 56.681776	
7.85081	 56.708485	
7.88407	 56.716794	
7.91734	 56.682889	
7.9506	 56.686863	
7.98387	 56.694856	
8.01714	 56.682746	
8.0504	 56.762191	
8.08367	 56.744754	
8.11694	 56.719671	
8.1502	 56.745411	
8.18347	 56.770212	
8.21673	 56.771979	
8.25	 56.773144	
8.28327	 56.817215	
8.31653	 56.771820	
8.3498	 56.774457	
8.38306	 56.776167	
8.41633	 56.727394	
8.4496	 56.813586	
8.48286	 56.720539	
8.51613	 56.725484	
8.5494	 56.789842	
8.58266	 56.710529	
8.61593	 56.746661	
8.64919	 56.697586	
8.68246	 56.638635	
8.71573	 56.757846	
8.74899	 56.673757	
8.78226	 56.681101	
8.81552	 56.738601	
8.84879	 56.588169	
8.88206	 56.727486	
8.91532	 56.629103	
8.94859	 56.641512	
8.98185	 56.709702	
9.01512	 56.647093	
9.04839	 56.665626	
9.08165	 56.672228	
9.11492	 56.660505	
9.14819	 56.624852	
9.18145	 56.615754	
9.21472	 56.672387	
9.24798	 56.676887	
9.28125	 56.642199	
9.31452	 56.652258	
9.34778	 56.690462	
9.38105	 56.638831	
9.41431	 56.719754	
9.44758	 56.711229	
9.48085	 56.704441	
9.51411	 56.791125	
9.54738	 56.874108	
9.58065	 56.874511	
9.61391	 57.313457	
9.64718	 57.409241	
9.68044	 72.035155	
9.71371	 71.731596	
9.74698	 71.208385	
9.78024	 71.278215	
9.81351	 71.561471	
9.84677	 71.442045	
9.88004	 71.493961	
9.91331	 70.961684	
9.94657	 70.918858	
9.97984	 70.933179	
10.0131	 70.941152	
10.0464	 70.821381	
10.0796	 70.667721	
